<svg xmlns="http://www.w3.org/2000/svg" xmlns:xlink="http://www.w3.org/1999/xlink" aria-hidden="true" role="img" class="iconify iconify--logos" width="31.88" height="32" preserveAspectRatio="xMidYMid meet" viewBox="0 0 256 257"><defs><linearGradient id="IconifyId1813088fe1fbc01fb466" x1="-.828%" x2="57.636%" y1="7.652%" y2="78.411%"><stop offset="0%" stop-color="#41D1FF"></stop><stop offset="100%" stop-color="#BD34FE"></stop></linearGradient><linearGradient id="IconifyId1813088fe1fbc01fb467" x1="43.376%" x2="50.316%" y1="2.242%" y2="89.03%"><stop offset="0%" stop-color="#FFEA83"></stop><stop offset="8.333%" stop-color="#FFDD35"></stop><stop offset="100%" stop-color="#FFA800"></stop></linearGradient></defs><path fill="url(#IconifyId1813088fe1fbc01fb466)" d="M255.153 37.938L134.897 252.976c-2.883 5.084-10.017 5.084-12.9 0L.846 37.938c-2.883-5.084-.7-10.865 5.15-12.271l131.08-21.949a6.885 6.885 0 0 1 1.714-.102a6.885 6.885 0 0 1 1.714.102l131.08 21.949c5.85 1.406 8.033 7.187 5.15 12.271Z"></path><path fill="url(#IconifyId1813088fe1fbc01fb467)" d="M185.432.063L96.44 17.557a3.467 3.467 0 0 0-2.746 3.27v131.994c0 2.3 1.164 4.411 3.106 5.748a12.54 12.54 0 0 0 7.383 2.431c2.651 0 5.225-.624 7.383-2.431c1.942-1.337 3.106-3.448 3.106-5.748V85.704a3.467 3.467 0 0 1 2.746-3.27l36.926-6.14a3.467 3.467 0 0 1 4.009 3.429v80.652a12.54 12.54 0 0 0 7.383 2.431c2.651 0 5.225-.624 7.383-2.431c1.942-1.337 3.106-3.448 3.106-5.748V3.332a3.467 3.467 0 0 0-3.9-3.269Z"></path></svg>
